<?xml version="1.0" encoding="UTF-8"?>
<svg version="1.1" xmlns="http://www.w3.org/2000/svg" width="1136" height="400">
<path d="M0 0 C40.92 0 81.84 0 124 0 C124 18.48 124 36.96 124 56 C149.08 56 174.16 56 200 56 C200 49.4 200 42.8 200 36 C227.72 36 255.44 36 284 36 C284 30.72 284 25.44 284 20 C324.92 20 365.84 20 408 20 C408 25.28 408 30.56 408 36 C434.4 36 460.8 36 488 36 C488 42.6 488 49.2 488 56 C510.44 56 532.88 56 556 56 C556 102.53 556 149.06 556 197 C529.6 197 503.2 197 476 197 C476 190.4 476 183.8 476 177 C453.56 177 431.12 177 408 177 C408 183.6 408 190.2 408 197 C367.08 197 326.16 197 284 197 C284 190.4 284 183.8 284 177 C260.24 177 236.48 177 212 177 C212 183.6 212 190.2 212 197 C179 197 146 197 112 197 C112 190.4 112 183.8 112 177 C75.04 177 38.08 177 0 177 C0 118.59 0 60.18 0 0 Z " fill="#1866A3" transform="translate(0,114)"/>
<path d="M0 0 C38.28 0 76.56 0 116 0 C116 62.37 116 124.74 116 189 C81.68 189 47.36 189 12 189 C12 196.26 12 203.52 12 211 C-17.04 211 -46.08 211 -76 211 C-76 203.41 -76 195.82 -76 188 C-99.76 188 -123.52 188 -148 188 C-148 195.59 -148 203.18 -148 211 C-181 211 -214 211 -248 211 C-248 204.4 -248 197.8 -248 191 C-273.08 191 -298.16 191 -324 191 C-324 197.27 -324 203.54 -324 210 C-354.36 210 -384.72 210 -416 210 C-416 151.59 -416 93.18 -416 33 C-385.64 33 -355.28 33 -324 33 C-324 38.61 -324 44.22 -324 50 C-294.96 50 -265.92 50 -236 50 C-236 56.6 -236 63.2 -236 70 C-210.92 70 -185.84 70 -160 70 C-160 64.06 -160 58.12 -160 52 C-129.64 52 -99.28 52 -68 52 C-68 57.94 -68 63.88 -68 70 C-45.56 70 -23.12 70 0 70 C0 46.9 0 23.8 0 0 Z " fill="#2493D1" transform="translate(1020,100)"/>
<path d="M0 0 C30.36 0 60.72 0 92 0 C92 5.61 92 11.22 92 17 C121.04 17 150.08 17 180 17 C180 23.6 180 30.2 180 37 C205.08 37 230.16 37 256 37 C256 75.94 256 114.88 256 155 C259.96 155 263.92 155 268 155 C268 162.59 268 170.18 268 178 C235 178 202 178 168 178 C168 171.4 168 164.8 168 158 C142.92 158 117.84 158 92 158 C92 164.27 92 170.54 92 177 C61.64 177 31.28 177 0 177 C0 118.59 0 60.18 0 0 Z " fill="#2493D1" transform="translate(604,133)"/>
<path d="M0 0 C30.36 0 60.72 0 92 0 C92 6.6 92 13.2 92 20 C114.44 20 136.88 20 160 20 C160 66.53 160 113.06 160 161 C133.6 161 107.2 161 80 161 C80 154.4 80 147.8 80 141 C53.6 141 27.2 141 0 141 C0 94.47 0 47.94 0 0 Z " fill="#2493D1" transform="translate(396,150)"/>
<path d="M0 0 C38.28 0 76.56 0 116 0 C116 62.37 116 124.74 116 189 C77.72 189 39.44 189 0 189 C0 126.63 0 64.26 0 0 Z " fill="#1866A3" transform="translate(1020,100)"/>
<path d="M0 0 C40.92 0 81.84 0 124 0 C124 5.28 124 10.56 124 16 C120.04 16 116.08 16 112 16 C112 62.53 112 109.06 112 157 C115.96 157 119.92 157 124 157 C124 163.6 124 170.2 124 177 C83.08 177 42.16 177 0 177 C0 118.59 0 60.18 0 0 Z " fill="#1867A3" transform="translate(284,134)"/>
<path d="M0 0 C29.04 0 58.08 0 88 0 C88 38.94 88 77.88 88 118 C91.96 118 95.92 118 100 118 C100 125.59 100 133.18 100 141 C67 141 34 141 0 141 C0 94.47 0 47.94 0 0 Z " fill="#1967A3" transform="translate(772,170)"/>
<path d="M0 0 C27.72 0 55.44 0 84 0 C84 46.53 84 93.06 84 141 C56.28 141 28.56 141 0 141 C0 94.47 0 47.94 0 0 Z " fill="#FCFEFE" transform="translate(200,150)"/>
<path d="M0 0 C30.36 0 60.72 0 92 0 C92 6.6 92 13.2 92 20 C88.04 20 84.08 20 80 20 C80 59.93 80 99.86 80 141 C53.6 141 27.2 141 0 141 C0 94.47 0 47.94 0 0 Z " fill="#8CD3F2" transform="translate(692,150)"/>
<path d="M0 0 C26.4 0 52.8 0 80 0 C80 46.53 80 93.06 80 141 C53.6 141 27.2 141 0 141 C0 94.47 0 47.94 0 0 Z " fill="#8CD3F2" transform="translate(476,170)"/>
<path d="M0 0 C25.08 0 50.16 0 76 0 C76 39.27 76 78.54 76 119 C79.96 119 83.92 119 88 119 C88 126.26 88 133.52 88 141 C58.96 141 29.92 141 0 141 C0 94.47 0 47.94 0 0 Z " fill="#8CD3F2" transform="translate(944,170)"/>
<path d="M0 0 C9.39800454 7.2546 13.46787967 19.0266563 15.49609375 30.34375 C15.78958445 32.82032909 15.94413242 35.25767967 16.03125 37.75 C16.09119141 39.20792969 16.09119141 39.20792969 16.15234375 40.6953125 C16.56934332 60.66223325 12.8923944 80.88675399 0.65625 97.1875 C-6.95316714 104.61574054 -14.26744475 107.77955305 -24.90625 108.0625 C-30.52014721 107.96140227 -35.08780422 107.61010171 -39.96875 104.75 C-40.85433594 104.23373047 -40.85433594 104.23373047 -41.7578125 103.70703125 C-51.57324621 96.68056439 -55.05984182 83.03360888 -56.96875 71.75 C-57.37030866 67.34300833 -57.44645699 62.98591239 -57.40625 58.5625 C-57.39940186 57.39138672 -57.39255371 56.22027344 -57.38549805 55.01367188 C-57.03208949 35.73106545 -52.04602471 17.33754861 -38.59375 2.9375 C-27.70004531 -7.47311358 -12.48348301 -7.92602096 0 0 Z " fill="#FAFCFE" transform="translate(182.96875,189.25)"/>
<path d="M0 0 C29.04 0 58.08 0 88 0 C88 39.93 88 79.86 88 121 C91.96 121 95.92 121 100 121 C100 127.6 100 134.2 100 141 C67 141 34 141 0 141 C0 94.47 0 47.94 0 0 Z M26.8125 28.8125 C13.55700779 47.6360174 10.96331449 73.62363695 14.68359375 95.9453125 C16.796038 105.97070797 20.73967323 116.51990659 29.17578125 122.8515625 C37.27544899 127.95071093 46.28352051 128.20115878 55.62109375 126.53125 C66.73338736 123.2957815 72.96957438 115.24357049 78.40625 105.47265625 C83.7847553 94.56806472 86.59606527 82.11804202 87 70 C87.03996094 68.98679688 87.07992187 67.97359375 87.12109375 66.9296875 C87.43978231 51.37018721 85.37325907 35.26147904 75 23 C68.79626196 17.1180326 62.1754283 13.93530348 53.625 13.5625 C41.99910571 13.9484218 33.84911753 19.94958479 26.8125 28.8125 Z " fill="#2593D1" transform="translate(112,170)"/>
<path d="M0 0 C27.72 0 55.44 0 84 0 C84 12.87 84 25.74 84 39 C81.83051415 36.83051415 80.97553948 35.0190751 79.6875 32.25 C75.70536121 24.22801027 71.26434796 19.71082529 63 16 C55.40977774 13.60627721 47.51524685 14.43098558 40.34765625 17.6796875 C28.2463372 24.48542101 21.8910818 36.95006643 17.80078125 49.75390625 C12.1692245 70.14543631 12.47935122 93.90610217 22 113 C25.67974496 119.24133537 29.72582601 123.25382077 36.734375 125.57421875 C45.71156466 127.26131129 54.88495211 127.08929932 62.88671875 122.484375 C73.87545564 114.76585371 79.72836925 102.81388711 83 90 C83.33 90 83.66 90 84 90 C84 106.83 84 123.66 84 141 C56.28 141 28.56 141 0 141 C0 94.47 0 47.94 0 0 Z " fill="#8CD3F2" transform="translate(200,150)"/>
<path d="M0 0 C7.51112887 5.66572221 10.43536632 14.31283912 11.8125 23.3671875 C12.48066425 31.90843583 12.2379378 40.49615674 12.125 49.0546875 C12.10804501 51.43513087 12.09242438 53.81558412 12.078125 56.19604492 C11.96179523 71.92711242 11.6931687 87.65802532 10.8125 103.3671875 C11.74320313 103.50125 12.67390625 103.6353125 13.6328125 103.7734375 C16.9825444 104.39894026 19.0460524 105.41440096 21.8125 107.3671875 C21.8125 107.6971875 21.8125 108.0271875 21.8125 108.3671875 C13.5625 108.3671875 5.3125 108.3671875 -3.1875 108.3671875 C-3.5175 100.4471875 -3.8475 92.5271875 -4.1875 84.3671875 C-6.1675 89.3171875 -6.1675 89.3171875 -8.1875 94.3671875 C-12.536554 101.40709455 -18.18528641 107.7075258 -26.1875 110.3671875 C-31.68886886 111.00395429 -36.57350452 111.13016718 -41.625 108.7421875 C-48.75202976 102.13664772 -53.17435938 94.97984381 -53.71875 85.03515625 C-53.73553507 83.20838075 -53.7245221 81.38116494 -53.6875 79.5546875 C-53.67541504 78.59344971 -53.66333008 77.63221191 -53.65087891 76.6418457 C-53.30927013 64.34703521 -50.1566446 53.67354878 -41.4921875 44.58984375 C-36.69531009 40.19091357 -31.92953041 37.68184673 -25.375 36.9296875 C-18.68209813 37.2285938 -12.3828288 39.8537579 -7.5625 44.4921875 C-5.1875 47.3671875 -5.1875 47.3671875 -5.1875 49.3671875 C-4.5275 49.3671875 -3.8675 49.3671875 -3.1875 49.3671875 C-3.3436377 48.80273926 -3.49977539 48.23829102 -3.66064453 47.65673828 C-4.19724896 45.32482153 -4.43886046 43.1193179 -4.6171875 40.734375 C-4.69066406 39.84492188 -4.76414062 38.95546875 -4.83984375 38.0390625 C-4.98637872 36.19837761 -5.12716064 34.35722417 -5.26171875 32.515625 C-5.94056914 24.50749153 -7.24687683 15.95468506 -12.1875 9.3671875 C-16.29080535 6.6316506 -19.3719754 6.54035657 -24.1875 7.3671875 C-31.03493484 10.18742244 -35.4574547 15.65972794 -39.82592773 21.40332031 C-40.88519238 22.7742096 -42.03109221 24.07718748 -43.1875 25.3671875 C-44.1775 25.3671875 -45.1675 25.3671875 -46.1875 25.3671875 C-44.9732051 16.59044838 -36.8332025 8.82403446 -30.1875 3.3671875 C-20.97106733 -2.23495785 -10.02419531 -5.86092065 0 0 Z " fill="#F9FBFC" transform="translate(838.1875,186.6328125)"/>
<path d="M0 0 C0.0845972 10.52440595 -0.11253039 21.00881425 -0.55558777 31.5238533 C-0.65946601 33.99042621 -0.7591995 36.45713971 -0.85803223 38.92391968 C-1.06845362 44.15776158 -1.28395833 49.39138754 -1.5 54.625 C-1.75076681 60.70879045 -1.99932771 66.79265967 -2.24345398 72.87672043 C-2.34082461 75.27937743 -2.44160132 77.68187442 -2.54260254 80.0843811 C-2.91008775 89.06387706 -3.08492147 98.01124247 -3 107 C-2.64808594 105.75347656 -2.29617188 104.50695312 -1.93359375 103.22265625 C10.2482719 60.86859844 10.2482719 60.86859844 26.96875 50.81640625 C30.72157268 49.30806021 34.17734345 49.93276086 38 51 C44.05363715 54.04487117 46.44972409 59.2834658 48.95703125 65.31640625 C52.61641045 78.24073054 52.31527835 91.24558584 52.25 104.5625 C52.24734131 106.11531174 52.24734131 106.11531174 52.24462891 107.69949341 C52.21142922 124.20724118 51.65372412 140.56611659 50 157 C50.63808594 157.10957031 51.27617188 157.21914063 51.93359375 157.33203125 C52.75988281 157.49058594 53.58617187 157.64914062 54.4375 157.8125 C55.26121094 157.96332031 56.08492187 158.11414063 56.93359375 158.26953125 C57.61550781 158.51058594 58.29742188 158.75164062 59 159 C59.33 159.99 59.66 160.98 60 162 C49.11 162 38.22 162 27 162 C27 161.01 27 160.02 27 159 C31.455 158.01 31.455 158.01 36 157 C36.07018328 148.81868749 36.12315191 140.6375053 36.15543652 132.45596409 C36.17094845 128.65502182 36.19191383 124.85428873 36.22631836 121.0534668 C37.59403023 92.97295977 37.59403023 92.97295977 29 67 C27.18031538 64.77501192 27.18031538 64.77501192 24.5859375 64.6796875 C20.54157212 65.18065119 19.29231824 67.29555672 16.82421875 70.36328125 C-0.20659515 94.97955402 -3.50286848 128.04056042 -5 157 C-1.37 157.66 2.26 158.32 6 159 C6 159.99 6 160.98 6 162 C-5.22 162 -16.44 162 -28 162 C-27 159 -27 159 -25.15234375 158.05078125 C-24.42144531 157.80714844 -23.69054688 157.56351563 -22.9375 157.3125 C-21.83728516 156.93544922 -21.83728516 156.93544922 -20.71484375 156.55078125 C-19.86599609 156.27814453 -19.86599609 156.27814453 -19 156 C-18.97667233 136.7204697 -18.95902147 117.44094226 -18.94818783 98.16140079 C-18.94302459 89.21021618 -18.93598137 80.25904032 -18.92456055 71.30786133 C-18.91461455 63.50889612 -18.90814678 55.70993724 -18.90591151 47.91096586 C-18.90460425 43.77887814 -18.90151749 39.64680856 -18.89426994 35.51472664 C-18.88751106 31.62998474 -18.88538277 27.74526854 -18.88689232 23.86052132 C-18.88661593 22.43060161 -18.88461002 21.00068109 -18.88079453 19.57076645 C-18.87585941 17.62681949 -18.87760195 15.68285891 -18.87974548 13.73890686 C-18.87882369 12.64842576 -18.8779019 11.55794466 -18.87695217 10.43441868 C-18.72463315 8.05186349 -18.72463315 8.05186349 -20 7 C-21.84891946 6.76636119 -23.70488031 6.58696365 -25.5625 6.4375 C-26.57441406 6.35371094 -27.58632812 6.26992187 -28.62890625 6.18359375 C-29.80259766 6.09271484 -29.80259766 6.09271484 -31 6 C-31 5.01 -31 4.02 -31 3 C-27.89839846 1.44919923 -24.5326756 1.33407501 -21.125 0.9375 C-19.98720093 0.80335693 -19.98720093 0.80335693 -18.82641602 0.66650391 C-12.53127941 -0.0306687 -6.3308177 -0.17405483 0 0 Z " fill="#F9FBFC" transform="translate(1064,114)"/>
<path d="M0 0 C10.56 0 21.12 0 32 0 C38.08904276 16.17704019 44.08831433 32.3824596 50 48.625 C58.91384362 73.11519864 67.95480932 97.55806765 77 122 C77.04669788 107.1880742 77.08197798 92.37615813 77.10362434 77.5641737 C77.11394178 70.6868818 77.128011 63.80963561 77.15087891 56.93237305 C77.1729241 50.29937655 77.1845585 43.66641518 77.18975449 37.03338051 C77.19345888 34.49875451 77.2006923 31.96413121 77.21146011 29.42952538 C77.22591113 25.88809901 77.22798061 22.34687088 77.22705078 18.80541992 C77.23783661 17.22262238 77.23783661 17.22262238 77.24884033 15.60784912 C77.246091 14.64451157 77.24334167 13.68117401 77.24050903 12.68864441 C77.24327441 11.43177968 77.24327441 11.43177968 77.24609566 10.14952374 C77.1316692 7.70300738 77.1316692 7.70300738 75 5 C72.58392583 4.20201782 72.58392583 4.20201782 69.875 3.8125 C68.96492188 3.65394531 68.05484375 3.49539062 67.1171875 3.33203125 C66.41851562 3.22246094 65.71984375 3.11289063 65 3 C65 2.01 65 1.02 65 0 C75.56 0 86.12 0 97 0 C96.67 0.99 96.34 1.98 96 3 C94.15234375 3.73046875 94.15234375 3.73046875 91.9375 4.1875 C91.20402344 4.34605469 90.47054687 4.50460938 89.71484375 4.66796875 C89.14894531 4.77753906 88.58304687 4.88710937 88 5 C87.50840998 16.33281944 87.03047395 27.66618137 86.5625 39 C86.52757698 39.84462421 86.49265396 40.68924843 86.45667267 41.55946732 C85.39487805 67.3171403 84.59730053 93.05520463 84.29125977 118.83398438 C83.99268093 143.35277812 83.99268093 143.35277812 83 148 C80.04335481 149.4783226 77.25770263 149.06032783 74 149 C68.80597132 139.28859005 64.69708325 129.08019045 60.4375 118.9375 C60.02970306 117.96934357 59.62190613 117.00118713 59.20175171 116.00369263 C49.6549655 93.33449209 40.33850732 70.57007221 31.1206665 47.76531982 C29.96684161 44.91817945 28.80475673 42.0744967 27.64208984 39.23095703 C26.90048701 37.4053665 26.15910392 35.57968669 25.41796875 33.75390625 C25.07220291 32.9133519 24.72643707 32.07279755 24.37019348 31.20677185 C24.05749008 30.43285599 23.74478668 29.65894012 23.42260742 28.86157227 C23.14672287 28.18538345 22.87083832 27.50919464 22.58659363 26.81251526 C22 25 22 25 22 22 C21.34 22 20.68 22 20 22 C20.00261841 22.98653564 20.00523682 23.97307129 20.00793457 24.98950195 C20.06971725 50.76206716 19.88687059 76.52505702 19.53643799 102.29510498 C19.47417903 106.91676361 19.41498456 111.53846162 19.35546875 116.16015625 C19.23983834 125.10681007 19.12104703 134.05341783 19 143 C22.96 143.66 26.92 144.32 31 145 C31.33 145.99 31.66 146.98 32 148 C22.1 148 12.2 148 2 148 C2 147.01 2 146.02 2 145 C5.3 144.01 8.6 143.02 12 142 C12.0607241 116.59477071 11.94263223 91.19608498 11.62768555 65.79272461 C11.57170097 61.26305432 11.52181306 56.73333729 11.47328281 52.20358181 C11.43411883 48.63188546 11.39111767 45.06024262 11.34705925 41.48860359 C11.32700664 39.81716504 11.30824334 38.14571039 11.29092598 36.47424126 C12.44130974 19.54372229 12.44130974 19.54372229 8 5 C5.67724823 4.59952556 3.34260643 4.2602896 1 4 C0.67 2.68 0.34 1.36 0 0 Z " fill="#F8FAFC" transform="translate(298,148)"/>
<path d="M0 0 C10.56 0 21.12 0 32 0 C38.08904276 16.17704019 44.08831433 32.3824596 50 48.625 C58.91384362 73.11519864 67.95480932 97.55806765 77 122 C77.04669788 107.1880742 77.08197798 92.37615813 77.10362434 77.5641737 C77.11394178 70.6868818 77.128011 63.80963561 77.15087891 56.93237305 C77.1729241 50.29937655 77.1845585 43.66641518 77.18975449 37.03338051 C77.19345888 34.49875451 77.2006923 31.96413121 77.21146011 29.42952538 C77.22591113 25.88809901 77.22798061 22.34687088 77.22705078 18.80541992 C77.23783661 17.22262238 77.23783661 17.22262238 77.24884033 15.60784912 C77.246091 14.64451157 77.24334167 13.68117401 77.24050903 12.68864441 C77.24327441 11.43177968 77.24327441 11.43177968 77.24609566 10.14952374 C77.1316692 7.70300738 77.1316692 7.70300738 75 5 C72.58392583 4.20201782 72.58392583 4.20201782 69.875 3.8125 C68.96492188 3.65394531 68.05484375 3.49539062 67.1171875 3.33203125 C66.41851562 3.22246094 65.71984375 3.11289063 65 3 C65 2.01 65 1.02 65 0 C75.56 0 86.12 0 97 0 C96.67 0.99 96.34 1.98 96 3 C94.15234375 3.73046875 94.15234375 3.73046875 91.9375 4.1875 C91.20402344 4.34605469 90.47054687 4.50460938 89.71484375 4.66796875 C89.14894531 4.77753906 88.58304687 4.88710937 88 5 C87.50840998 16.33281944 87.03047395 27.66618137 86.5625 39 C86.52757698 39.84462421 86.49265396 40.68924843 86.45667267 41.55946732 C85.39487805 67.3171403 84.59730053 93.05520463 84.29125977 118.83398438 C83.99268093 143.35277812 83.99268093 143.35277812 83 148 C80.04335481 149.4783226 77.25770263 149.06032783 74 149 C68.80597132 139.28859005 64.69708325 129.08019045 60.4375 118.9375 C60.02970306 117.96934357 59.62190613 117.00118713 59.20175171 116.00369263 C49.6549655 93.33449209 40.33850732 70.57007221 31.1206665 47.76531982 C29.96684161 44.91817945 28.80475673 42.0744967 27.64208984 39.23095703 C26.90048701 37.4053665 26.15910392 35.57968669 25.41796875 33.75390625 C25.07220291 32.9133519 24.72643707 32.07279755 24.37019348 31.20677185 C24.05749008 30.43285599 23.74478668 29.65894012 23.42260742 28.86157227 C23.14672287 28.18538345 22.87083832 27.50919464 22.58659363 26.81251526 C22 25 22 25 22 22 C21.34 22 20.68 22 20 22 C20.00261841 22.98653564 20.00523682 23.97307129 20.00793457 24.98950195 C20.06971725 50.76206716 19.88687059 76.52505702 19.53643799 102.29510498 C19.47417903 106.91676361 19.41498456 111.53846162 19.35546875 116.16015625 C19.23983834 125.10681007 19.12104703 134.05341783 19 143 C22.96 143.66 26.92 144.32 31 145 C31.33 145.99 31.66 146.98 32 148 C22.1 148 12.2 148 2 148 C2 147.01 2 146.02 2 145 C5.3 144.01 8.6 143.02 12 142 C12.0607241 116.59477071 11.94263223 91.19608498 11.62768555 65.79272461 C11.57170097 61.26305432 11.52181306 56.73333729 11.47328281 52.20358181 C11.43411883 48.63188546 11.39111767 45.06024262 11.34705925 41.48860359 C11.32700664 39.81716504 11.30824334 38.14571039 11.29092598 36.47424126 C12.44130974 19.54372229 12.44130974 19.54372229 8 5 C5.67724823 4.59952556 3.34260643 4.2602896 1 4 C0.67 2.68 0.34 1.36 0 0 Z " fill="#F8FAFC" transform="translate(14,128)"/>
<path d="M0 0 C8.62305316 4.26692458 13.0438072 11.69376288 16.4921875 20.375 C18.82780103 27.76205674 19.86278298 34.69190826 19.875 42.4375 C19.89949219 43.27796875 19.92398438 44.1184375 19.94921875 44.984375 C19.97795345 50.98034817 19.97795345 50.98034817 17.8515625 53.5703125 C12.46455849 55.84323446 6.79573564 55.69943225 1.0390625 55.66015625 C0.24849457 55.6587413 -0.54207336 55.65732635 -1.3565979 55.65586853 C-3.86277166 55.65030504 -6.36885358 55.63775944 -8.875 55.625 C-10.58202995 55.61998028 -12.28906132 55.6154182 -13.99609375 55.61132812 C-18.16409748 55.60034759 -22.33203321 55.58310839 -26.5 55.5625 C-26.42003436 80.22902634 -26.42003436 80.22902634 -14.875 101.125 C-9.92535114 104.1208401 -5.12974531 104.25294046 0.5 103.5625 C5.69846461 101.89202564 10.56990021 99.74154522 15.23046875 96.89453125 C17.5 95.5625 17.5 95.5625 19.5 95.5625 C19.4765625 97.76953125 19.4765625 97.76953125 18.5 100.5625 C16.1675636 102.5051638 13.556917 103.84689369 10.875 105.25 C9.82505859 105.83491211 9.82505859 105.83491211 8.75390625 106.43164062 C1.85318275 110.17646738 -4.53816368 111.94027595 -12.4375 111.875 C-13.49300049 111.86762817 -13.49300049 111.86762817 -14.56982422 111.86010742 C-22.93034699 111.67110882 -28.4787394 109.5837606 -34.5 103.5625 C-46.24807725 89.45110692 -45.43251984 67.78489641 -44.5 50.5625 C-42.78270414 34.2719243 -37.15096319 15.41455469 -24.1640625 4.62109375 C-16.4418869 -0.70233295 -9.12538158 -3.44561822 0 0 Z " fill="#FBFDFE" transform="translate(750.5,165.4375)"/>
<path d="M0 0 C9.46584772 6.1064647 13.74500763 16.11321617 16.33984375 26.69921875 C17.37335234 31.58024446 17.63653725 36.33771 17.671875 41.31640625 C17.70474609 42.156875 17.73761719 42.99734375 17.77148438 43.86328125 C17.79168615 46.16261091 17.74178699 48.19854038 17.234375 50.44140625 C12.16188048 55.03975225 5.36606541 54.58307539 -1.12890625 54.5390625 C-1.92088913 54.53764755 -2.71287201 54.5362326 -3.52885437 54.53477478 C-6.04531719 54.52920082 -8.56168931 54.51665318 -11.078125 54.50390625 C-12.78971225 54.49888788 -14.50130091 54.49432556 -16.21289062 54.49023438 C-20.39717008 54.47923993 -24.58138219 54.46199332 -28.765625 54.44140625 C-28.72455468 78.71581488 -28.72455468 78.71581488 -17.765625 99.44140625 C-12.68041395 102.9526234 -7.74264912 103.35258895 -1.765625 102.44140625 C3.43018742 100.75260545 8.30087706 98.62252731 12.96484375 95.7734375 C15.234375 94.44140625 15.234375 94.44140625 17.234375 94.44140625 C17.2109375 96.6484375 17.2109375 96.6484375 16.234375 99.44140625 C13.9019386 101.38407005 11.291292 102.72579994 8.609375 104.12890625 C7.55943359 104.71381836 7.55943359 104.71381836 6.48828125 105.31054688 C-0.41244225 109.05537363 -6.80378868 110.8191822 -14.703125 110.75390625 C-15.75862549 110.74653442 -15.75862549 110.74653442 -16.83544922 110.73901367 C-25.19597199 110.55001507 -30.7443644 108.46266685 -36.765625 102.44140625 C-42.07964746 96.05838219 -43.7782667 88.35187165 -45.765625 80.44140625 C-45.94287109 79.82450928 -46.12011719 79.2076123 -46.30273438 78.57202148 C-50.94916165 57.18522252 -45.44179217 31.06728916 -34.453125 12.37890625 C-26.51166179 0.72090838 -13.55577331 -6.70777059 0 0 Z " fill="#F9FCFD" transform="translate(456.765625,166.55859375)"/>
<path d="M0 0 C4.46689362 1.21453859 6.96824569 3.69771202 9.32421875 7.484375 C16.11853102 20.45080978 16.52980428 34.85271352 16.453125 49.20703125 C16.45163452 49.90114105 16.45014404 50.59525085 16.4486084 51.31039429 C16.30383082 88.97687416 16.30383082 88.97687416 5.140625 102.58203125 C2.1347512 104.94378923 -1.13380386 105.01862648 -4.90625 104.87890625 C-8.29075022 104.36446222 -9.60468766 103.14140606 -11.859375 100.58203125 C-20.19630354 87.94877144 -21.51676129 72.76471126 -21.32592773 58.07348633 C-21.29693088 55.64920292 -21.3053869 53.22711844 -21.31835938 50.80273438 C-21.29628383 34.79239474 -20.53711111 14.18316806 -8.8515625 1.99609375 C-5.88736771 -0.10790334 -3.57150296 -0.35836509 0 0 Z " fill="#8CD3F2" transform="translate(252.859375,168.41796875)"/>
<path d="M0 0 C4.51125299 1.06099487 7.01216312 3.64148103 9.359375 7.4140625 C16.15368727 20.38049728 16.56496053 34.78240102 16.48828125 49.13671875 C16.48679077 49.83082855 16.48530029 50.52493835 16.48376465 51.24008179 C16.33898707 88.90656166 16.33898707 88.90656166 5.17578125 102.51171875 C2.16990745 104.87347673 -1.09864761 104.94831398 -4.87109375 104.80859375 C-8.25559397 104.29414972 -9.56953141 103.07109356 -11.82421875 100.51171875 C-20.41914052 86.68287448 -21.06122232 71.50552041 -21.07421875 55.69921875 C-21.07489349 54.96417114 -21.07556824 54.22912354 -21.07626343 53.47180176 C-21.02135486 15.79939271 -21.02135486 15.79939271 -10.07421875 2.69921875 C-6.40184651 0.22742974 -4.34716984 -0.32877755 0 0 Z " fill="#2593D1" transform="translate(164.82421875,188.48828125)"/>
<path d="M0 0 C0.84175781 -0.020625 1.68351563 -0.04125 2.55078125 -0.0625 C3.36933594 -0.06765625 4.18789063 -0.0728125 5.03125 -0.078125 C5.76923828 -0.0874707 6.50722656 -0.09681641 7.26757812 -0.10644531 C10.33335223 0.3830593 12.08917669 1.28915571 14.5 3.25 C15.2512207 5.97729492 15.2512207 5.97729492 15.42578125 9.23046875 C15.49990234 10.39384766 15.57402344 11.55722656 15.65039062 12.75585938 C15.73063477 14.57827148 15.73063477 14.57827148 15.8125 16.4375 C15.88533203 17.66404297 15.95816406 18.89058594 16.03320312 20.15429688 C16.21013119 23.18566439 16.36480626 26.21653119 16.5 29.25 C15.18 29.25 13.86 29.25 12.5 29.25 C12.2733667 28.69014404 12.0467334 28.13028809 11.81323242 27.5534668 C10.77912309 25.01155595 9.73346274 22.47455499 8.6875 19.9375 C8.33107422 19.05642578 7.97464844 18.17535156 7.60742188 17.26757812 C7.25615234 16.42001953 6.90488281 15.57246094 6.54296875 14.69921875 C6.22352295 13.91893311 5.90407715 13.13864746 5.57495117 12.3347168 C4.10327901 9.48061538 2.64443261 7.64776011 -0.421875 6.58203125 C-7.63968836 5.42880919 -13.43652511 5.9262563 -19.5 10.25 C-25.58271728 15.56205626 -28.06368837 21.64987492 -28.81640625 29.5859375 C-29.20810378 41.23578011 -26.29887451 48.94834988 -18.828125 57.81640625 C-15.5874756 61.2038636 -12.04237135 64.07510157 -8.3671875 66.9765625 C4.2470635 76.97859804 16.921538 89.11943115 18.94140625 105.921875 C19.30487919 117.41230997 17.03569676 127.3713207 9.46484375 136.22265625 C-0.05253676 146.0427765 -11.83567908 151.03683382 -25.50390625 151.453125 C-27.35671658 151.47422462 -29.20959809 151.48971324 -31.0625 151.5 C-32.46145508 151.5309375 -32.46145508 151.5309375 -33.88867188 151.5625 C-37.73631425 151.58443951 -40.89831182 151.4475007 -44.5703125 150.2421875 C-47.44942167 147.26982783 -47.53150587 144.07377397 -47.8125 140.125 C-47.91957275 138.98236694 -47.91957275 138.98236694 -48.02880859 137.81665039 C-48.48673698 132.61810985 -48.68973644 127.46775206 -48.5 122.25 C-46.63867188 122.49072266 -46.63867188 122.49072266 -44.5 123.25 C-43.28320312 125.06005859 -43.28320312 125.06005859 -42.28125 127.3984375 C-41.90613281 128.23890625 -41.53101563 129.079375 -41.14453125 129.9453125 C-40.76683594 130.82960938 -40.38914062 131.71390625 -40 132.625 C-39.2496773 134.36636325 -38.48958085 136.10355477 -37.71875 137.8359375 C-37.38810547 138.6098584 -37.05746094 139.3837793 -36.71679688 140.18115234 C-35.28809161 142.61029529 -33.89197325 143.78239998 -31.5 145.25 C-22.27326323 146.65489408 -13.63566926 144.84192305 -5.625 140.15234375 C-0.60195908 136.44785107 1.58805455 130.98583634 3.5 125.25 C4.60864303 113.92500093 3.20487493 105.55866635 -3.98242188 96.35083008 C-8.12581746 91.39000173 -12.65429771 87.58669262 -17.875 83.8125 C-29.81847601 74.89444731 -41.69381634 64.71879752 -44.5 49.25 C-45.67561512 36.20212349 -43.37960062 26.13278588 -35.546875 15.60546875 C-25.71760974 4.29431045 -14.57671625 0.08929076 0 0 Z " fill="#F9FCFD" transform="translate(665.5,145.75)"/>
<path d="M0 0 C0.33 8.91 0.66 17.82 1 27 C-0.485 27.495 -0.485 27.495 -2 28 C-2.40992188 27.01257813 -2.81984375 26.02515625 -3.2421875 25.0078125 C-3.78620174 23.71343379 -4.33048669 22.41916884 -4.875 21.125 C-5.14441406 20.47402344 -5.41382813 19.82304687 -5.69140625 19.15234375 C-6.88423286 16.33029055 -7.81257989 14.18742011 -10 12 C-12.78282531 11.16247575 -12.78282531 11.16247575 -16 12 C-23.0892977 17.28909401 -26.11391731 25.96396217 -29 34 C-29.22429688 34.61955566 -29.44859375 35.23911133 -29.6796875 35.87744141 C-34.35247012 49.191436 -36.11567637 63.07090386 -38 77 C-38.10820068 77.72687012 -38.21640137 78.45374023 -38.32788086 79.20263672 C-39.08026119 84.4871656 -39.11564738 89.677085 -39.0625 95 C-39.05798828 95.87011719 -39.05347656 96.74023438 -39.04882812 97.63671875 C-39.0371736 99.75784293 -39.01924357 101.8789311 -39 104 C-34.05 104.99 -29.1 105.98 -24 107 C-23.67 107.99 -23.34 108.98 -23 110 C-36.53 110 -50.06 110 -64 110 C-63.67 109.01 -63.34 108.02 -63 107 C-58.545 106.01 -58.545 106.01 -54 105 C-54.33 72.99 -54.66 40.98 -55 8 C-58.63 8 -62.26 8 -66 8 C-66 7.01 -66 6.02 -66 5 C-46.23662927 -1.29037308 -46.23662927 -1.29037308 -37 -1 C-36.89413107 10.16672925 -36.96782546 21.23947854 -37.77734375 32.37890625 C-38.0977158 37.5891675 -38.08893475 42.78249471 -38 48 C-37.54560547 46.15148437 -37.54560547 46.15148437 -37.08203125 44.265625 C-33.10408662 28.41000948 -28.51059789 10.56283108 -15 0 C-10.00331557 -2.49834222 -5.0680846 -2.5340423 0 0 Z " fill="#F6FAFD" transform="translate(939,166)"/>
<path d="M0 0 C1 1 1 1 1.11352539 3.40844727 C1.10828857 4.45057373 1.10305176 5.4927002 1.09765625 6.56640625 C1.09443359 7.69111328 1.09121094 8.81582031 1.08789062 9.97460938 C1.07532227 11.75061523 1.07532227 11.75061523 1.0625 13.5625 C1.05798828 14.75037109 1.05347656 15.93824219 1.04882812 17.16210938 C1.03699675 20.10812226 1.02051287 23.05403681 1 26 C0.01 26 -0.98 26 -2 26 C-2.2266333 25.44014404 -2.4532666 24.88028809 -2.68676758 24.3034668 C-3.72087691 21.76155595 -4.76653726 19.22455499 -5.8125 16.6875 C-6.16892578 15.80642578 -6.52535156 14.92535156 -6.89257812 14.01757812 C-7.24384766 13.17001953 -7.59511719 12.32246094 -7.95703125 11.44921875 C-8.27647705 10.66893311 -8.59592285 9.88864746 -8.92504883 9.0847168 C-10.05718171 6.8891041 -11.07205887 5.53834943 -13 4 C-16.34070243 3.4218015 -18.72800687 3.34606861 -21.80078125 4.92578125 C-32.91199441 13.27766875 -36.20100594 30.06572501 -38.25 43 C-40.43782575 61.90202606 -41.12065272 82.80257731 -29.61328125 98.9453125 C-25.98448053 102.87575157 -22.57778257 103.461348 -17.3125 103.6875 C-10.97195513 103.44363289 -6.07118151 101.81497426 -0.42578125 98.99609375 C2 98 2 98 5 99 C4 102 4 102 1.05078125 103.75390625 C-0.19025738 104.36710969 -1.43664129 104.96958532 -2.6875 105.5625 C-3.30044922 105.86607422 -3.91339844 106.16964844 -4.54492188 106.48242188 C-14.32168815 111.24120843 -24.39023295 112.80026458 -35.0546875 110.27734375 C-44.44925211 106.75081266 -49.56680308 100.80081401 -54 92 C-62.29011226 72.23868589 -59.17038952 48.11327942 -51.6875 28.6875 C-45.52129726 14.87445617 -37.26399741 4.74008877 -23 -1 C-15.69484053 -3.33646801 -7.10066219 -2.68247238 0 0 Z " fill="#FBFDFE" transform="translate(1015,186)"/>
<path d="M0 0 C2.6364141 2.6364141 2.01183328 8.48043135 2.09765625 11.96484375 C2.08605469 13.27582031 2.07445312 14.58679688 2.0625 15.9375 C2.05798828 16.62134766 2.05347656 17.30519531 2.04882812 18.00976562 C2.0371956 19.67321604 2.01926694 21.3366205 2 23 C1.01 23.33 0.02 23.66 -1 24 C-1.53109375 22.80761719 -2.0621875 21.61523438 -2.609375 20.38671875 C-3.32234831 18.82005372 -4.03592148 17.25366159 -4.75 15.6875 C-5.09804688 14.90181641 -5.44609375 14.11613281 -5.8046875 13.30664062 C-8.27298688 7.68272909 -8.27298688 7.68272909 -13 4 C-17.51700568 3.08838613 -21.16753685 3.6073287 -25.3125 5.5625 C-29.76235681 9.59841664 -31.73232583 12.41649315 -32.34765625 18.35546875 C-32.56601561 27.36516591 -31.23789256 33.24228306 -25 40 C-22.49721701 42.05213738 -19.88141077 43.92970903 -17.25 45.8125 C-7.63875681 52.8817839 2.66021688 60.50555812 5 73 C5.90468303 83.11465285 4.27414138 91.15037494 -2 99.25 C-9.19592042 106.89469825 -20.1730257 110.91111585 -30.54296875 111.265625 C-32.09114577 111.27085091 -33.63939247 111.26557191 -35.1875 111.25 C-35.96802734 111.25773437 -36.74855469 111.26546875 -37.55273438 111.2734375 C-41.81856914 111.25896478 -45.1101399 110.96441832 -49 109 C-49.99862699 101.63512596 -50.10331031 94.42686315 -50 87 C-48.515 86.505 -48.515 86.505 -47 86 C-46.62246582 86.74890503 -46.62246582 86.74890503 -46.23730469 87.51293945 C-45.08491185 89.78471662 -43.91766921 92.04853947 -42.75 94.3125 C-42.35425781 95.09818359 -41.95851563 95.88386719 -41.55078125 96.69335938 C-38.78963908 102.25940297 -38.78963908 102.25940297 -34 106 C-27.47162602 107.38556312 -21.58412329 105.32878806 -16 102 C-11.23093903 98.14416347 -9.40999547 94.75303547 -8.74609375 88.67578125 C-8.33821701 80.08405509 -11.36795007 74.34556977 -17 68 C-19.32937454 66.08150322 -21.77918394 64.35558149 -24.25 62.625 C-45.92369799 47.04255167 -45.92369799 47.04255167 -48 35 C-48.90373176 26.65460207 -47.26668886 19.75616357 -42.4921875 12.8046875 C-32.65824183 0.77525628 -15.10073163 -7.35747326 0 0 Z " fill="#FCFDFE" transform="translate(539,186)"/>
<path d="M0 0 C5.36613325 0.67432825 8.57607666 4.24256498 11.84375 8.26171875 C15.45364014 13.59897752 16.88196519 19.20315187 15.84375 25.56640625 C13.13483702 37.10006027 9.86740636 47.85205309 1.89453125 56.90234375 C-2.02835167 58.90940013 -5.47867112 59.03821425 -9.79296875 58.27734375 C-14.11386942 55.77576968 -14.89862295 51.47618522 -16.1796875 46.91015625 C-19.19527394 33.96426288 -19.38636777 18.2907376 -12.29296875 6.58984375 C-11.07421875 4.828125 -11.07421875 4.828125 -9.79296875 3.27734375 C-9.33664062 2.72175781 -8.8803125 2.16617188 -8.41015625 1.59375 C-5.76359265 -0.56057834 -3.28498269 -0.13267297 0 0 Z " fill="#1967A3" transform="translate(818.79296875,229.72265625)"/>
<path d="M0 0 C6.15057858 5.45164919 7.97352846 13.06074224 9 21 C9.2128799 24.70893855 9.27589287 28.41059691 9.3125 32.125 C9.34150391 33.11371094 9.37050781 34.10242188 9.40039062 35.12109375 C9.46320698 42.26282975 9.46320698 42.26282975 7.35546875 45.6171875 C1.83737347 48.85666632 -4.66788825 48.12326239 -10.875 48.0625 C-11.75414062 48.05798828 -12.63328125 48.05347656 -13.5390625 48.04882812 C-15.69273803 48.03712337 -17.84637817 48.01919069 -20 48 C-20.80565438 31.5736023 -18.92038288 15.08853603 -9.125 1.375 C-5.85858188 -0.73856466 -3.79519425 -0.66582355 0 0 Z " fill="#8DD3F2" transform="translate(744,169)"/>
<path d="M0 0 C6.48292858 5.74623215 8.05211816 13.6619951 9 22 C9.20547903 25.56340183 9.27519628 29.11877701 9.3125 32.6875 C9.34150391 33.62400391 9.37050781 34.56050781 9.40039062 35.52539062 C9.46300276 42.27305267 9.46300276 42.27305267 7.35546875 45.58203125 C1.8710524 48.88359532 -4.67223963 48.12321979 -10.875 48.0625 C-11.75414062 48.05798828 -12.63328125 48.05347656 -13.5390625 48.04882812 C-15.69273803 48.03712337 -17.84637817 48.01919069 -20 48 C-20.80565438 31.5736023 -18.92038288 15.08853603 -9.125 1.375 C-5.85858188 -0.73856466 -3.79519425 -0.66582355 0 0 Z " fill="#2694D1" transform="translate(448,169)"/>
<path d="M0 0 C0.66 1.32 1.32 2.64 2 4 C2.66 4 3.32 4 4 4 C3.01 8.95 2.02 13.9 1 19 C0.67 19 0.34 19 0 19 C0 12.73 0 6.46 0 0 Z " fill="#377BAF" transform="translate(1060,207)"/>
</svg>
